<svg width="27" height="27" viewBox="0 0 27 27" fill="none" xmlns="http://www.w3.org/2000/svg">
<g id="solar:heart-outline">
<path id="Vector" fill-rule="evenodd" clip-rule="evenodd" d="M6.327 4.977C4.46063 5.82975 3.09375 7.85925 3.09375 10.2791C3.09375 12.7507 4.10625 14.6565 5.55525 16.29C6.75113 17.6355 8.19788 18.7515 9.60863 19.8382C9.94388 20.097 10.2769 20.3546 10.6043 20.6122C11.196 21.0791 11.7236 21.4875 12.2333 21.7856C12.7418 22.0826 13.1513 22.2187 13.5 22.2187C13.8488 22.2187 14.2583 22.0837 14.7668 21.7856C15.2764 21.4875 15.804 21.0791 16.3958 20.6122C16.722 20.3535 17.0561 20.097 17.3914 19.8394C18.8021 18.7504 20.2489 17.6355 21.4448 16.29C22.8949 14.6565 23.9063 12.7507 23.9063 10.2791C23.9063 7.86037 22.5394 5.82975 20.673 4.977C18.8595 4.14787 16.4228 4.36725 14.1075 6.77362C14.0288 6.85528 13.9344 6.92024 13.8301 6.9646C13.7257 7.00897 13.6134 7.03183 13.5 7.03183C13.3866 7.03183 13.2743 7.00897 13.17 6.9646C13.0656 6.92024 12.9712 6.85528 12.8925 6.77362C10.5773 4.36725 8.1405 4.14787 6.327 4.977ZM13.5 5.0175C10.899 2.68875 7.98638 2.3625 5.625 3.44138C3.13425 4.58325 1.40625 7.22925 1.40625 10.2802C1.40625 13.2784 2.655 15.5666 4.29413 17.4116C5.60588 18.8887 7.21125 20.1251 8.62988 21.2164C8.95163 21.4639 9.26325 21.7046 9.55913 21.9386C10.1363 22.3931 10.755 22.8769 11.3816 23.2436C12.0083 23.6092 12.7238 23.9074 13.5 23.9074C14.2763 23.9074 14.9918 23.6092 15.6184 23.2436C16.2461 22.8769 16.8638 22.3931 17.4409 21.9386C17.749 21.6958 18.0588 21.4551 18.3701 21.2164C19.7876 20.1251 21.3941 18.8876 22.7059 17.4116C24.345 15.5666 25.5938 13.2784 25.5938 10.2802C25.5938 7.22925 23.8669 4.58325 21.375 3.44363C19.0136 2.36363 16.101 2.68988 13.5 5.0175Z" fill="white"/>
</g>
</svg>
