<svg width="30" height="30" viewBox="0 0 30 30" fill="none" xmlns="http://www.w3.org/2000/svg">
<g id="iconamoon:home-light">
<path id="Vector 2" d="M5 26V13.3896C5 13.1102 5.1169 12.8435 5.32238 12.6542L15.1027 3.64248C15.4937 3.28225 16.0981 3.29087 16.4787 3.66211L25.6983 12.6569C25.8912 12.8451 26 13.1032 26 13.3727V26C26 26.5523 25.5523 27 25 27H20.75H20C19.4477 27 19 26.5523 19 26V18.7361C19 18.5808 18.9648 18.428 18.8799 18.298C18.5482 17.7901 17.5079 16.5 15.5 16.5C13.4921 16.5 12.4518 17.7901 12.1201 18.298C12.0352 18.428 12 18.5808 12 18.7361V26C12 26.5523 11.5523 27 11 27H10.25H6C5.44772 27 5 26.5523 5 26Z" stroke="#F0F0F0" stroke-width="1.5"/>
</g>
</svg>
